<mxfile host="app.diagrams.net" modified="2024-06-08T07:43:50.598Z" agent="Mozilla/5.0 (Windows NT 10.0; Win64; x64) AppleWebKit/537.36 (KHTML, like Gecko) Chrome/125.0.0.0 Safari/537.36" etag="17pfxCxAJ_tz3WL3KY0a" version="24.5.2" type="github">
  <diagram id="C5RBs43oDa-KdzZeNtuy" name="Page-1">
    <mxGraphModel dx="3754" dy="1236" grid="1" gridSize="10" guides="1" tooltips="1" connect="1" arrows="1" fold="1" page="1" pageScale="1" pageWidth="827" pageHeight="1169" math="0" shadow="0">
      <root>
        <mxCell id="WIyWlLk6GJQsqaUBKTNV-0" />
        <mxCell id="WIyWlLk6GJQsqaUBKTNV-1" parent="WIyWlLk6GJQsqaUBKTNV-0" />
        <mxCell id="sWBeI6xUsLOHfjXmEShF-1" value="Kafka" style="swimlane;whiteSpace=wrap;html=1;startSize=20;" vertex="1" parent="WIyWlLk6GJQsqaUBKTNV-1">
          <mxGeometry x="60" y="240" width="420" height="390" as="geometry">
            <mxRectangle x="200" y="130" width="140" height="30" as="alternateBounds" />
          </mxGeometry>
        </mxCell>
        <mxCell id="sWBeI6xUsLOHfjXmEShF-54" value="T2" style="whiteSpace=wrap;html=1;aspect=fixed;fillColor=#cdeb8b;strokeColor=#36393d;" vertex="1" parent="sWBeI6xUsLOHfjXmEShF-1">
          <mxGeometry x="76.87" y="285" width="50" height="50" as="geometry" />
        </mxCell>
        <mxCell id="sWBeI6xUsLOHfjXmEShF-58" value="T3" style="whiteSpace=wrap;html=1;aspect=fixed;fillColor=#cdeb8b;strokeColor=#36393d;" vertex="1" parent="sWBeI6xUsLOHfjXmEShF-1">
          <mxGeometry x="333.12" y="285" width="50" height="50" as="geometry" />
        </mxCell>
        <mxCell id="sWBeI6xUsLOHfjXmEShF-83" style="edgeStyle=orthogonalEdgeStyle;rounded=0;orthogonalLoop=1;jettySize=auto;html=1;exitX=0.5;exitY=1;exitDx=0;exitDy=0;entryX=0.5;entryY=0;entryDx=0;entryDy=0;" edge="1" parent="sWBeI6xUsLOHfjXmEShF-1" source="WIyWlLk6GJQsqaUBKTNV-10" target="sWBeI6xUsLOHfjXmEShF-54">
          <mxGeometry relative="1" as="geometry" />
        </mxCell>
        <mxCell id="sWBeI6xUsLOHfjXmEShF-107" value="Get the best model&lt;div&gt;from Online ML&lt;/div&gt;" style="edgeLabel;html=1;align=center;verticalAlign=middle;resizable=0;points=[];" vertex="1" connectable="0" parent="sWBeI6xUsLOHfjXmEShF-83">
          <mxGeometry x="0.0408" relative="1" as="geometry">
            <mxPoint as="offset" />
          </mxGeometry>
        </mxCell>
        <mxCell id="WIyWlLk6GJQsqaUBKTNV-10" value="Online ML" style="rhombus;whiteSpace=wrap;html=1;shadow=0;fontFamily=Helvetica;fontSize=12;align=center;strokeWidth=1;spacing=6;spacingTop=-4;fillColor=#d0cee2;strokeColor=#56517e;" parent="sWBeI6xUsLOHfjXmEShF-1" vertex="1">
          <mxGeometry x="140" y="140" width="167.5" height="80" as="geometry" />
        </mxCell>
        <mxCell id="sWBeI6xUsLOHfjXmEShF-80" style="edgeStyle=orthogonalEdgeStyle;rounded=0;orthogonalLoop=1;jettySize=auto;html=1;exitX=0.5;exitY=1;exitDx=0;exitDy=0;entryX=1;entryY=0.5;entryDx=0;entryDy=0;" edge="1" parent="sWBeI6xUsLOHfjXmEShF-1" source="sWBeI6xUsLOHfjXmEShF-24" target="sWBeI6xUsLOHfjXmEShF-54">
          <mxGeometry relative="1" as="geometry" />
        </mxCell>
        <mxCell id="sWBeI6xUsLOHfjXmEShF-106" value="Get the best model&lt;div&gt;from Offline ML&lt;/div&gt;" style="edgeLabel;html=1;align=center;verticalAlign=middle;resizable=0;points=[];" vertex="1" connectable="0" parent="sWBeI6xUsLOHfjXmEShF-80">
          <mxGeometry x="-0.4183" y="-1" relative="1" as="geometry">
            <mxPoint x="1" y="11" as="offset" />
          </mxGeometry>
        </mxCell>
        <mxCell id="sWBeI6xUsLOHfjXmEShF-24" value="Offline Model Testing" style="rhombus;whiteSpace=wrap;html=1;shadow=0;fontFamily=Helvetica;fontSize=12;align=center;strokeWidth=1;spacing=6;spacingTop=-4;fillColor=#d0cee2;strokeColor=#56517e;" vertex="1" parent="sWBeI6xUsLOHfjXmEShF-1">
          <mxGeometry x="240" y="50" width="165" height="80" as="geometry" />
        </mxCell>
        <mxCell id="sWBeI6xUsLOHfjXmEShF-99" style="edgeStyle=orthogonalEdgeStyle;rounded=0;orthogonalLoop=1;jettySize=auto;html=1;exitX=0.5;exitY=1;exitDx=0;exitDy=0;" edge="1" parent="sWBeI6xUsLOHfjXmEShF-1" source="sWBeI6xUsLOHfjXmEShF-72" target="WIyWlLk6GJQsqaUBKTNV-10">
          <mxGeometry relative="1" as="geometry" />
        </mxCell>
        <mxCell id="sWBeI6xUsLOHfjXmEShF-72" value="T1" style="whiteSpace=wrap;html=1;aspect=fixed;fillColor=#cdeb8b;strokeColor=#36393d;" vertex="1" parent="sWBeI6xUsLOHfjXmEShF-1">
          <mxGeometry x="26.870000000000005" y="110" width="50" height="50" as="geometry" />
        </mxCell>
        <mxCell id="sWBeI6xUsLOHfjXmEShF-4" value="Kafka Connect" style="rounded=1;whiteSpace=wrap;html=1;fontSize=12;glass=0;strokeWidth=1;shadow=0;direction=south;fillColor=#b0e3e6;strokeColor=#0e8088;" vertex="1" parent="WIyWlLk6GJQsqaUBKTNV-1">
          <mxGeometry x="520" y="240" width="50" height="390" as="geometry" />
        </mxCell>
        <mxCell id="sWBeI6xUsLOHfjXmEShF-13" style="edgeStyle=orthogonalEdgeStyle;rounded=0;orthogonalLoop=1;jettySize=auto;html=1;exitX=1;exitY=0.5;exitDx=0;exitDy=0;exitPerimeter=0;entryX=0;entryY=0.5;entryDx=0;entryDy=0;" edge="1" parent="WIyWlLk6GJQsqaUBKTNV-1" target="sWBeI6xUsLOHfjXmEShF-12">
          <mxGeometry relative="1" as="geometry">
            <mxPoint x="440" y="210.0000000000001" as="sourcePoint" />
          </mxGeometry>
        </mxCell>
        <mxCell id="sWBeI6xUsLOHfjXmEShF-41" style="edgeStyle=orthogonalEdgeStyle;rounded=0;orthogonalLoop=1;jettySize=auto;html=1;entryX=0;entryY=0.5;entryDx=0;entryDy=0;" edge="1" parent="WIyWlLk6GJQsqaUBKTNV-1" source="sWBeI6xUsLOHfjXmEShF-8" target="sWBeI6xUsLOHfjXmEShF-28">
          <mxGeometry relative="1" as="geometry" />
        </mxCell>
        <mxCell id="sWBeI6xUsLOHfjXmEShF-8" value="Source&amp;nbsp;&lt;div&gt;Data&lt;/div&gt;" style="shape=dataStorage;whiteSpace=wrap;html=1;fixedSize=1;" vertex="1" parent="WIyWlLk6GJQsqaUBKTNV-1">
          <mxGeometry x="-1100" y="450" width="100" height="80" as="geometry" />
        </mxCell>
        <mxCell id="sWBeI6xUsLOHfjXmEShF-95" style="edgeStyle=orthogonalEdgeStyle;rounded=0;orthogonalLoop=1;jettySize=auto;html=1;exitX=1;exitY=0.5;exitDx=0;exitDy=0;entryX=0;entryY=0.5;entryDx=0;entryDy=0;" edge="1" parent="WIyWlLk6GJQsqaUBKTNV-1" source="sWBeI6xUsLOHfjXmEShF-20" target="sWBeI6xUsLOHfjXmEShF-39">
          <mxGeometry relative="1" as="geometry" />
        </mxCell>
        <mxCell id="sWBeI6xUsLOHfjXmEShF-96" style="edgeStyle=orthogonalEdgeStyle;rounded=0;orthogonalLoop=1;jettySize=auto;html=1;exitX=1;exitY=0.5;exitDx=0;exitDy=0;entryX=0;entryY=0.5;entryDx=0;entryDy=0;" edge="1" parent="WIyWlLk6GJQsqaUBKTNV-1" source="sWBeI6xUsLOHfjXmEShF-20" target="sWBeI6xUsLOHfjXmEShF-40">
          <mxGeometry relative="1" as="geometry">
            <Array as="points">
              <mxPoint x="-260" y="490" />
              <mxPoint x="-260" y="550" />
            </Array>
          </mxGeometry>
        </mxCell>
        <mxCell id="sWBeI6xUsLOHfjXmEShF-20" value="Convert csv to avro" style="shape=parallelogram;perimeter=parallelogramPerimeter;whiteSpace=wrap;html=1;fixedSize=1;" vertex="1" parent="WIyWlLk6GJQsqaUBKTNV-1">
          <mxGeometry x="-460" y="460" width="150" height="60" as="geometry" />
        </mxCell>
        <mxCell id="sWBeI6xUsLOHfjXmEShF-22" value="Kafka Connect" style="rounded=1;whiteSpace=wrap;html=1;fontSize=12;glass=0;strokeWidth=1;shadow=0;direction=south;fillColor=#b0e3e6;strokeColor=#0e8088;" vertex="1" parent="WIyWlLk6GJQsqaUBKTNV-1">
          <mxGeometry x="-20" y="240" width="50" height="390" as="geometry" />
        </mxCell>
        <mxCell id="sWBeI6xUsLOHfjXmEShF-43" style="edgeStyle=orthogonalEdgeStyle;rounded=0;orthogonalLoop=1;jettySize=auto;html=1;exitX=0.5;exitY=0;exitDx=0;exitDy=0;entryX=0;entryY=0.5;entryDx=0;entryDy=0;" edge="1" parent="WIyWlLk6GJQsqaUBKTNV-1" source="sWBeI6xUsLOHfjXmEShF-28" target="sWBeI6xUsLOHfjXmEShF-29">
          <mxGeometry relative="1" as="geometry">
            <Array as="points">
              <mxPoint x="-785" y="170" />
            </Array>
          </mxGeometry>
        </mxCell>
        <mxCell id="sWBeI6xUsLOHfjXmEShF-45" value="" style="edgeStyle=orthogonalEdgeStyle;rounded=0;orthogonalLoop=1;jettySize=auto;html=1;" edge="1" parent="WIyWlLk6GJQsqaUBKTNV-1" source="sWBeI6xUsLOHfjXmEShF-89" target="sWBeI6xUsLOHfjXmEShF-20">
          <mxGeometry relative="1" as="geometry" />
        </mxCell>
        <mxCell id="sWBeI6xUsLOHfjXmEShF-28" value="Split Data 40:40:20" style="shape=parallelogram;perimeter=parallelogramPerimeter;whiteSpace=wrap;html=1;fixedSize=1;" vertex="1" parent="WIyWlLk6GJQsqaUBKTNV-1">
          <mxGeometry x="-880" y="460" width="150" height="60" as="geometry" />
        </mxCell>
        <mxCell id="sWBeI6xUsLOHfjXmEShF-44" style="edgeStyle=orthogonalEdgeStyle;rounded=0;orthogonalLoop=1;jettySize=auto;html=1;exitX=1;exitY=0.5;exitDx=0;exitDy=0;entryX=0;entryY=0.5;entryDx=0;entryDy=0;" edge="1" parent="WIyWlLk6GJQsqaUBKTNV-1" source="sWBeI6xUsLOHfjXmEShF-29" target="sWBeI6xUsLOHfjXmEShF-38">
          <mxGeometry relative="1" as="geometry" />
        </mxCell>
        <mxCell id="sWBeI6xUsLOHfjXmEShF-29" value="40%" style="shape=parallelogram;perimeter=parallelogramPerimeter;whiteSpace=wrap;html=1;fixedSize=1;fillColor=#fad7ac;strokeColor=#b46504;" vertex="1" parent="WIyWlLk6GJQsqaUBKTNV-1">
          <mxGeometry x="-450" y="140" width="130" height="60" as="geometry" />
        </mxCell>
        <mxCell id="sWBeI6xUsLOHfjXmEShF-92" style="edgeStyle=orthogonalEdgeStyle;rounded=0;orthogonalLoop=1;jettySize=auto;html=1;exitX=1;exitY=0.5;exitDx=0;exitDy=0;entryX=0.5;entryY=0;entryDx=0;entryDy=0;" edge="1" parent="WIyWlLk6GJQsqaUBKTNV-1" source="sWBeI6xUsLOHfjXmEShF-38" target="sWBeI6xUsLOHfjXmEShF-24">
          <mxGeometry relative="1" as="geometry" />
        </mxCell>
        <mxCell id="sWBeI6xUsLOHfjXmEShF-104" value="Save Offline Model" style="edgeLabel;html=1;align=center;verticalAlign=middle;resizable=0;points=[];" vertex="1" connectable="0" parent="sWBeI6xUsLOHfjXmEShF-92">
          <mxGeometry x="-0.8576" y="3" relative="1" as="geometry">
            <mxPoint x="41" y="3" as="offset" />
          </mxGeometry>
        </mxCell>
        <mxCell id="sWBeI6xUsLOHfjXmEShF-38" value="Offline ML" style="rhombus;whiteSpace=wrap;html=1;shadow=0;fontFamily=Helvetica;fontSize=12;align=center;strokeWidth=1;spacing=6;spacingTop=-4;fillColor=#d0cee2;strokeColor=#56517e;" vertex="1" parent="WIyWlLk6GJQsqaUBKTNV-1">
          <mxGeometry x="96.87" y="130" width="165" height="80" as="geometry" />
        </mxCell>
        <mxCell id="sWBeI6xUsLOHfjXmEShF-86" style="edgeStyle=orthogonalEdgeStyle;rounded=0;orthogonalLoop=1;jettySize=auto;html=1;exitX=0.5;exitY=0;exitDx=0;exitDy=0;entryX=0;entryY=0.5;entryDx=0;entryDy=0;" edge="1" parent="WIyWlLk6GJQsqaUBKTNV-1" source="sWBeI6xUsLOHfjXmEShF-39" target="sWBeI6xUsLOHfjXmEShF-72">
          <mxGeometry relative="1" as="geometry" />
        </mxCell>
        <mxCell id="sWBeI6xUsLOHfjXmEShF-39" value="40%" style="shape=parallelogram;perimeter=parallelogramPerimeter;whiteSpace=wrap;html=1;fixedSize=1;fillColor=#fad7ac;strokeColor=#b46504;" vertex="1" parent="WIyWlLk6GJQsqaUBKTNV-1">
          <mxGeometry x="-210" y="405" width="130" height="60" as="geometry" />
        </mxCell>
        <mxCell id="sWBeI6xUsLOHfjXmEShF-55" style="edgeStyle=orthogonalEdgeStyle;rounded=0;orthogonalLoop=1;jettySize=auto;html=1;exitX=1;exitY=0.5;exitDx=0;exitDy=0;entryX=0;entryY=0.5;entryDx=0;entryDy=0;" edge="1" parent="WIyWlLk6GJQsqaUBKTNV-1" source="sWBeI6xUsLOHfjXmEShF-40" target="sWBeI6xUsLOHfjXmEShF-54">
          <mxGeometry relative="1" as="geometry" />
        </mxCell>
        <mxCell id="sWBeI6xUsLOHfjXmEShF-40" value="20%" style="shape=parallelogram;perimeter=parallelogramPerimeter;whiteSpace=wrap;html=1;fixedSize=1;fillColor=#fad7ac;strokeColor=#b46504;" vertex="1" parent="WIyWlLk6GJQsqaUBKTNV-1">
          <mxGeometry x="-220" y="520" width="130" height="60" as="geometry" />
        </mxCell>
        <mxCell id="sWBeI6xUsLOHfjXmEShF-59" style="edgeStyle=orthogonalEdgeStyle;rounded=0;orthogonalLoop=1;jettySize=auto;html=1;exitX=0.5;exitY=0;exitDx=0;exitDy=0;entryX=0.5;entryY=1;entryDx=0;entryDy=0;" edge="1" parent="WIyWlLk6GJQsqaUBKTNV-1" target="sWBeI6xUsLOHfjXmEShF-58">
          <mxGeometry relative="1" as="geometry">
            <mxPoint x="418.1199999999999" y="670" as="sourcePoint" />
          </mxGeometry>
        </mxCell>
        <mxCell id="WIyWlLk6GJQsqaUBKTNV-7" value="Select Best Model" style="rounded=1;whiteSpace=wrap;html=1;fontSize=12;glass=0;strokeWidth=1;shadow=0;direction=south;" parent="WIyWlLk6GJQsqaUBKTNV-1" vertex="1">
          <mxGeometry x="226.87" y="760" width="133.13" height="50" as="geometry" />
        </mxCell>
        <mxCell id="sWBeI6xUsLOHfjXmEShF-56" style="edgeStyle=orthogonalEdgeStyle;rounded=0;orthogonalLoop=1;jettySize=auto;html=1;exitX=0.5;exitY=1;exitDx=0;exitDy=0;entryX=0.5;entryY=1;entryDx=0;entryDy=0;" edge="1" parent="WIyWlLk6GJQsqaUBKTNV-1" source="sWBeI6xUsLOHfjXmEShF-110" target="WIyWlLk6GJQsqaUBKTNV-7">
          <mxGeometry relative="1" as="geometry">
            <mxPoint x="161.8699999999999" y="730" as="sourcePoint" />
            <Array as="points">
              <mxPoint x="162" y="720" />
              <mxPoint x="162" y="785" />
            </Array>
          </mxGeometry>
        </mxCell>
        <mxCell id="sWBeI6xUsLOHfjXmEShF-60" style="edgeStyle=orthogonalEdgeStyle;rounded=0;orthogonalLoop=1;jettySize=auto;html=1;exitX=1;exitY=0.5;exitDx=0;exitDy=0;entryX=0;entryY=0.5;entryDx=0;entryDy=0;" edge="1" parent="WIyWlLk6GJQsqaUBKTNV-1" source="sWBeI6xUsLOHfjXmEShF-90">
          <mxGeometry relative="1" as="geometry">
            <mxPoint x="827" y="550" as="targetPoint" />
          </mxGeometry>
        </mxCell>
        <mxCell id="sWBeI6xUsLOHfjXmEShF-63" value="" style="edgeStyle=orthogonalEdgeStyle;rounded=0;orthogonalLoop=1;jettySize=auto;html=1;exitX=0.5;exitY=0;exitDx=0;exitDy=0;entryX=0.5;entryY=1;entryDx=0;entryDy=0;" edge="1" parent="WIyWlLk6GJQsqaUBKTNV-1" source="WIyWlLk6GJQsqaUBKTNV-7" target="sWBeI6xUsLOHfjXmEShF-111">
          <mxGeometry relative="1" as="geometry">
            <mxPoint x="331.87" y="785" as="sourcePoint" />
            <mxPoint x="418.1199999999999" y="730" as="targetPoint" />
          </mxGeometry>
        </mxCell>
        <mxCell id="sWBeI6xUsLOHfjXmEShF-65" value="" style="edgeStyle=orthogonalEdgeStyle;rounded=0;orthogonalLoop=1;jettySize=auto;html=1;" edge="1" parent="WIyWlLk6GJQsqaUBKTNV-1" source="sWBeI6xUsLOHfjXmEShF-54">
          <mxGeometry relative="1" as="geometry">
            <mxPoint x="161.8699999999999" y="670" as="targetPoint" />
          </mxGeometry>
        </mxCell>
        <mxCell id="sWBeI6xUsLOHfjXmEShF-93" value="" style="edgeStyle=orthogonalEdgeStyle;rounded=0;orthogonalLoop=1;jettySize=auto;html=1;exitX=1;exitY=0.5;exitDx=0;exitDy=0;entryX=0;entryY=0.5;entryDx=0;entryDy=0;" edge="1" parent="WIyWlLk6GJQsqaUBKTNV-1" source="sWBeI6xUsLOHfjXmEShF-58" target="sWBeI6xUsLOHfjXmEShF-90">
          <mxGeometry relative="1" as="geometry">
            <mxPoint x="443" y="550" as="sourcePoint" />
            <mxPoint x="980" y="550" as="targetPoint" />
          </mxGeometry>
        </mxCell>
        <mxCell id="sWBeI6xUsLOHfjXmEShF-90" value="sink.json" style="shape=process;whiteSpace=wrap;html=1;backgroundOutline=1;fillColor=#647687;fontColor=#ffffff;strokeColor=#314354;" vertex="1" parent="WIyWlLk6GJQsqaUBKTNV-1">
          <mxGeometry x="640" y="520" width="120" height="60" as="geometry" />
        </mxCell>
        <mxCell id="sWBeI6xUsLOHfjXmEShF-94" value="" style="edgeStyle=orthogonalEdgeStyle;rounded=0;orthogonalLoop=1;jettySize=auto;html=1;" edge="1" parent="WIyWlLk6GJQsqaUBKTNV-1" source="sWBeI6xUsLOHfjXmEShF-28" target="sWBeI6xUsLOHfjXmEShF-89">
          <mxGeometry relative="1" as="geometry">
            <mxPoint x="-740" y="490" as="sourcePoint" />
            <mxPoint x="-433" y="490" as="targetPoint" />
          </mxGeometry>
        </mxCell>
        <mxCell id="sWBeI6xUsLOHfjXmEShF-89" value="source.json" style="shape=process;whiteSpace=wrap;html=1;backgroundOutline=1;fillColor=#647687;fontColor=#ffffff;strokeColor=#314354;" vertex="1" parent="WIyWlLk6GJQsqaUBKTNV-1">
          <mxGeometry x="-650" y="460" width="120" height="60" as="geometry" />
        </mxCell>
        <mxCell id="sWBeI6xUsLOHfjXmEShF-101" style="edgeStyle=orthogonalEdgeStyle;rounded=0;orthogonalLoop=1;jettySize=auto;html=1;exitX=1;exitY=0.5;exitDx=0;exitDy=0;entryX=0;entryY=0.5;entryDx=0;entryDy=0;" edge="1" parent="WIyWlLk6GJQsqaUBKTNV-1" source="sWBeI6xUsLOHfjXmEShF-98" target="sWBeI6xUsLOHfjXmEShF-24">
          <mxGeometry relative="1" as="geometry" />
        </mxCell>
        <mxCell id="sWBeI6xUsLOHfjXmEShF-105" value="System Testing for Offline Model" style="edgeLabel;html=1;align=center;verticalAlign=middle;resizable=0;points=[];" vertex="1" connectable="0" parent="sWBeI6xUsLOHfjXmEShF-101">
          <mxGeometry x="0.6339" y="2" relative="1" as="geometry">
            <mxPoint x="-186" y="2" as="offset" />
          </mxGeometry>
        </mxCell>
        <mxCell id="sWBeI6xUsLOHfjXmEShF-98" value="Resampling" style="shape=parallelogram;perimeter=parallelogramPerimeter;whiteSpace=wrap;html=1;fixedSize=1;fillColor=#fad7ac;strokeColor=#b46504;" vertex="1" parent="WIyWlLk6GJQsqaUBKTNV-1">
          <mxGeometry x="-460" y="300" width="150" height="60" as="geometry" />
        </mxCell>
        <mxCell id="sWBeI6xUsLOHfjXmEShF-103" style="edgeStyle=orthogonalEdgeStyle;rounded=0;orthogonalLoop=1;jettySize=auto;html=1;exitX=0.5;exitY=1;exitDx=0;exitDy=0;entryX=0.5;entryY=0;entryDx=0;entryDy=0;" edge="1" parent="WIyWlLk6GJQsqaUBKTNV-1" source="sWBeI6xUsLOHfjXmEShF-29" target="sWBeI6xUsLOHfjXmEShF-98">
          <mxGeometry relative="1" as="geometry" />
        </mxCell>
        <mxCell id="sWBeI6xUsLOHfjXmEShF-110" value="Consumer" style="shape=hexagon;perimeter=hexagonPerimeter2;whiteSpace=wrap;html=1;fixedSize=1;" vertex="1" parent="WIyWlLk6GJQsqaUBKTNV-1">
          <mxGeometry x="106.87" y="670" width="120" height="50" as="geometry" />
        </mxCell>
        <mxCell id="sWBeI6xUsLOHfjXmEShF-111" value="Producer" style="shape=hexagon;perimeter=hexagonPerimeter2;whiteSpace=wrap;html=1;fixedSize=1;" vertex="1" parent="WIyWlLk6GJQsqaUBKTNV-1">
          <mxGeometry x="360" y="670" width="120" height="50" as="geometry" />
        </mxCell>
        <mxCell id="sWBeI6xUsLOHfjXmEShF-112" value="Visualization" style="shape=document;whiteSpace=wrap;html=1;boundedLbl=1;" vertex="1" parent="WIyWlLk6GJQsqaUBKTNV-1">
          <mxGeometry x="827" y="510" width="120" height="80" as="geometry" />
        </mxCell>
      </root>
    </mxGraphModel>
  </diagram>
</mxfile>
